<svg width="30" height="30" viewBox="0 0 30 30" fill="none" xmlns="http://www.w3.org/2000/svg">
<path d="M14.9843 2.48645C14.7195 2.49059 14.467 2.59965 14.2825 2.78969C14.0979 2.97974 13.9963 3.23524 14 3.50012V4.00012H8.49996C8.3675 3.99832 8.23599 4.02286 8.11309 4.07231C7.99019 4.12176 7.87834 4.19513 7.78403 4.28817C7.68972 4.3812 7.61483 4.49205 7.56372 4.61427C7.51261 4.73649 7.48629 4.86765 7.48629 5.00012H5.99996C5.86745 4.99825 5.73589 5.02273 5.61292 5.07214C5.48995 5.12156 5.37803 5.19492 5.28366 5.28796C5.18929 5.38101 5.11435 5.49188 5.0632 5.61414C5.01206 5.73639 4.98572 5.8676 4.98572 6.00012C4.98572 6.13265 5.01206 6.26385 5.0632 6.38611C5.11435 6.50837 5.18929 6.61924 5.28366 6.71228C5.37803 6.80533 5.48995 6.87869 5.61292 6.9281C5.73589 6.97751 5.86745 7.002 5.99996 7.00012H24C24.1325 7.002 24.264 6.97751 24.387 6.9281C24.51 6.87869 24.6219 6.80533 24.7163 6.71228C24.8106 6.61924 24.8856 6.50837 24.9367 6.38611C24.9879 6.26385 25.0142 6.13265 25.0142 6.00012C25.0142 5.8676 24.9879 5.73639 24.9367 5.61414C24.8856 5.49188 24.8106 5.38101 24.7163 5.28796C24.6219 5.19492 24.51 5.12156 24.387 5.07214C24.264 5.02273 24.1325 4.99825 24 5.00012H22.5136C22.5136 4.86765 22.4873 4.73649 22.4362 4.61427C22.3851 4.49205 22.3102 4.3812 22.2159 4.28817C22.1216 4.19513 22.0097 4.12176 21.8868 4.07231C21.7639 4.02286 21.6324 3.99832 21.5 4.00012H16V3.50012C16.0018 3.36633 15.9768 3.23354 15.9263 3.1096C15.8759 2.98566 15.8012 2.87309 15.7065 2.77857C15.6117 2.68405 15.499 2.60949 15.375 2.55932C15.251 2.50914 15.1181 2.48436 14.9843 2.48645ZM5.99996 9.00012L7.79293 24.2345C7.91093 25.2415 8.7633 26.0001 9.7773 26.0001H20.2226C21.2366 26.0001 22.088 25.2415 22.207 24.2345L24 9.00012H5.99996Z" fill="#B9BBBE"/>
</svg>
